<svg xmlns="http://www.w3.org/2000/svg" viewBox="0 0 1012.54 1009.81" width="512" height="512" fill="none" role="img" aria-label="Ynara">
  <defs>
    <linearGradient id="p" x1="394.92" y1="226.37" x2="620.21" y2="226.37" gradientTransform="translate(-11.4 425.21) rotate(-45)" gradientUnits="userSpaceOnUse">
      <stop offset="0" stop-color="#8165a3"/>
      <stop offset=".33" stop-color="#7b559b"/>
      <stop offset=".98" stop-color="#692e87"/>
      <stop offset="1" stop-color="#692d87"/>
    </linearGradient>
    <linearGradient id="b" x1="119.53" y1="575.07" x2="895.73" y2="575.07" gradientUnits="userSpaceOnUse">
      <stop offset=".5" stop-color="#2f5aa6"/>
      <stop offset=".85" stop-color="#242552"/>
    </linearGradient>
  </defs>
  <rect fill="url(#p)" x="422.72" y="141.9" width="169.7" height="168.93" rx="17.08" ry="17.08" transform="translate(308.73 -292.6) rotate(45)"/>
  <path fill="url(#b)" d="M820.99,335.09c-49.27,52.6-62.12,60.65-106.09,109.14-50.19,55.36-66.07,80.85-74.08,94.62-6.88,11.82-23.51,41.74-36.59,81.69-13.87,42.4-18.58,80.28-19.97,111.23-.08,1.88-.16,3.74-.22,5.57-.76,22.58.15,41.17.22,54.77v101.74c0,11.14-9.03,20.16-20.16,20.16h-117.54c-11.14,0-20.17-9.02-20.17-20.16v-197.78c-.54-4.12-1.13-8.35-1.78-12.69-4.88-32.62-9.95-51.11-13.58-62.84-3.98-12.89-14.42-43.59-36.59-81.69-8.01-13.77-23.89-39.26-74.08-94.62-43.96-48.49-56.82-56.54-106.09-109.14-15.74-16.8-29.13-31.13-40.04-43.19-.01-.02-.03-.03-.05-.05-5.07-5.61-9.6-10.72-13.57-15.37-.03-.03-.05-.05-.07-.08-16.3-19.04-23.38-30.26-20.31-35.19.12-.19.25-.37.39-.55,0,0,.13-.17.28-.32,12.69-13.4,73.8,9.52,73.8,9.52,4.39,1.65,65.61,24.95,121.94,62.84,3.75,2.52,7.39,5.05,7.39,5.05,11.75,8.16,32.79,23.44,56.95,44.86.02.01.03.03.05.04,15.91,14.11,33.17,30.86,50.01,49.98.12.12.22.23.31.34.27.3.49.55.67.76.12.14.23.26.31.36.06.08.13.15.2.23.05.05.07.08.07.08.05.05.09.11.14.16,21.5,24.66,42.24,53.19,58.51,84.97h0c5.77,11.28,10.98,22.96,15.46,35.02.32.84.62,1.68.92,2.52.3-.85.61-1.69.93-2.52.25-.66.49-1.32.75-1.98,46.96-123.85,170.08-206.9,189.31-219.87,84.27-56.85,185.98-88.22,196.41-71.49,5.45,8.73-20.97,37.23-74.04,93.88Z"/>
</svg>
